<svg width="100" height="100" viewBox="0 0 100 100" fill="none" xmlns="http://www.w3.org/2000/svg">
<path d="M0 12C0 5.37258 5.37258 0 12 0H88C94.6274 0 100 5.37258 100 12V88C100 94.6274 94.6274 100 88 100H12C5.37258 100 0 94.6274 0 88V12Z" fill="url(#paint0_linear_0_1)"/>
<path d="M25.24 34.06C25.1667 34.18 25.09 34.27 25.01 34.33C24.93 34.3833 24.83 34.41 24.71 34.41C24.5833 34.41 24.44 34.3567 24.28 34.25C24.1267 34.1433 23.9333 34.0267 23.7 33.9C23.4733 33.7667 23.2033 33.6467 22.89 33.54C22.5767 33.4267 22.2033 33.37 21.77 33.37C21.37 33.37 21.0167 33.42 20.71 33.52C20.41 33.62 20.1567 33.76 19.95 33.94C19.7433 34.12 19.5867 34.3333 19.48 34.58C19.38 34.82 19.33 35.0833 19.33 35.37C19.33 35.7367 19.4267 36.0433 19.62 36.29C19.8133 36.53 20.0667 36.7367 20.38 36.91C20.7 37.0833 21.0633 37.2367 21.47 37.37C21.8767 37.4967 22.29 37.6333 22.71 37.78C23.1367 37.9267 23.5533 38.0933 23.96 38.28C24.3667 38.4667 24.7267 38.7033 25.04 38.99C25.36 39.2767 25.6167 39.6267 25.81 40.04C26.0033 40.4533 26.1 40.9567 26.1 41.55C26.1 42.19 25.99 42.79 25.77 43.35C25.55 43.91 25.23 44.4 24.81 44.82C24.3967 45.2333 23.8833 45.56 23.27 45.8C22.6633 46.04 21.97 46.16 21.19 46.16C20.73 46.16 20.28 46.1133 19.84 46.02C19.4067 45.9333 18.99 45.81 18.59 45.65C18.1967 45.4833 17.8267 45.2833 17.48 45.05C17.1333 44.8167 16.8233 44.5567 16.55 44.27L17.23 43.15C17.29 43.0567 17.3667 42.9833 17.46 42.93C17.5533 42.8767 17.6567 42.85 17.77 42.85C17.9233 42.85 18.0933 42.9233 18.28 43.07C18.4667 43.21 18.69 43.3667 18.95 43.54C19.2167 43.7067 19.5367 43.8633 19.91 44.01C20.2833 44.15 20.73 44.22 21.25 44.22C22.0967 44.22 22.75 44.0133 23.21 43.6C23.6767 43.1867 23.91 42.6167 23.91 41.89C23.91 41.4833 23.8133 41.1533 23.62 40.9C23.4267 40.64 23.17 40.4233 22.85 40.25C22.5367 40.0767 22.1767 39.93 21.77 39.81C21.3633 39.69 20.95 39.5633 20.53 39.43C20.11 39.29 19.6967 39.13 19.29 38.95C18.8833 38.7633 18.52 38.5233 18.2 38.23C17.8867 37.93 17.6333 37.5633 17.44 37.13C17.2467 36.69 17.15 36.1433 17.15 35.49C17.15 34.97 17.25 34.4667 17.45 33.98C17.6567 33.4933 17.9533 33.0633 18.34 32.69C18.7333 32.31 19.2167 32.0067 19.79 31.78C20.3633 31.5533 21.0167 31.44 21.75 31.44C22.5767 31.44 23.3333 31.57 24.02 31.83C24.7133 32.09 25.31 32.46 25.81 32.94L25.24 34.06ZM30.3898 35.8V46H28.2398V35.8H30.3898ZM30.7498 32.72C30.7498 32.9133 30.7098 33.0967 30.6298 33.27C30.5565 33.4433 30.4532 33.5967 30.3198 33.73C30.1865 33.8567 30.0298 33.96 29.8498 34.04C29.6765 34.1133 29.4898 34.15 29.2898 34.15C29.0965 34.15 28.9132 34.1133 28.7398 34.04C28.5732 33.96 28.4265 33.8567 28.2998 33.73C28.1732 33.5967 28.0698 33.4433 27.9898 33.27C27.9165 33.0967 27.8798 32.9133 27.8798 32.72C27.8798 32.52 27.9165 32.3333 27.9898 32.16C28.0698 31.9867 28.1732 31.8367 28.2998 31.71C28.4265 31.5767 28.5732 31.4733 28.7398 31.4C28.9132 31.32 29.0965 31.28 29.2898 31.28C29.4898 31.28 29.6765 31.32 29.8498 31.4C30.0298 31.4733 30.1865 31.5767 30.3198 31.71C30.4532 31.8367 30.5565 31.9867 30.6298 32.16C30.7098 32.3333 30.7498 32.52 30.7498 32.72ZM33.0913 46V35.8H34.3913C34.6846 35.8 34.8713 35.9367 34.9513 36.21L35.0913 37.1C35.2779 36.8867 35.4713 36.6933 35.6713 36.52C35.8713 36.34 36.0846 36.1867 36.3113 36.06C36.5446 35.9267 36.7913 35.8233 37.0513 35.75C37.3179 35.6767 37.6046 35.64 37.9113 35.64C38.2379 35.64 38.5379 35.6867 38.8113 35.78C39.0846 35.8733 39.3246 36.0067 39.5313 36.18C39.7446 36.3533 39.9279 36.5633 40.0813 36.81C40.2346 37.0567 40.3613 37.3333 40.4613 37.64C40.6146 37.2867 40.8079 36.9833 41.0413 36.73C41.2746 36.4767 41.5346 36.27 41.8213 36.11C42.1079 35.95 42.4113 35.8333 42.7313 35.76C43.0579 35.68 43.3879 35.64 43.7213 35.64C44.2679 35.64 44.7546 35.7267 45.1813 35.9C45.6146 36.0733 45.9779 36.3267 46.2713 36.66C46.5713 36.9867 46.7979 37.39 46.9513 37.87C47.1046 38.35 47.1813 38.8967 47.1813 39.51V46H45.0313V39.51C45.0313 38.79 44.8746 38.25 44.5613 37.89C44.2546 37.5233 43.7979 37.34 43.1913 37.34C42.9179 37.34 42.6613 37.3867 42.4213 37.48C42.1813 37.5733 41.9713 37.71 41.7913 37.89C41.6113 38.07 41.4679 38.2967 41.3613 38.57C41.2613 38.8367 41.2113 39.15 41.2113 39.51V46H39.0613V39.51C39.0613 38.7633 38.9113 38.2167 38.6113 37.87C38.3113 37.5167 37.8713 37.34 37.2912 37.34C36.8913 37.34 36.5213 37.4433 36.1813 37.65C35.8413 37.85 35.5279 38.1267 35.2413 38.48V46H33.0913ZM51.8428 43.44C52.1428 43.8267 52.4695 44.1 52.8228 44.26C53.1828 44.4133 53.5795 44.49 54.0128 44.49C54.8528 44.49 55.5061 44.1833 55.9728 43.57C56.4461 42.9567 56.6828 42.0433 56.6828 40.83C56.6828 40.2033 56.6295 39.67 56.5228 39.23C56.4161 38.7833 56.2628 38.42 56.0628 38.14C55.8628 37.86 55.6195 37.6567 55.3328 37.53C55.0461 37.4033 54.7228 37.34 54.3628 37.34C53.8161 37.34 53.3428 37.46 52.9428 37.7C52.5495 37.9333 52.1828 38.27 51.8428 38.71V43.44ZM51.7328 37.28C52.1595 36.78 52.6428 36.3767 53.1828 36.07C53.7295 35.7633 54.3628 35.61 55.0828 35.61C55.6561 35.61 56.1761 35.7267 56.6428 35.96C57.1095 36.1867 57.5095 36.52 57.8428 36.96C58.1761 37.4 58.4328 37.9467 58.6128 38.6C58.7995 39.2467 58.8928 39.99 58.8928 40.83C58.8928 41.5833 58.7895 42.2867 58.5828 42.94C58.3828 43.5867 58.0928 44.15 57.7128 44.63C57.3328 45.1033 56.8728 45.4767 56.3328 45.75C55.7928 46.0167 55.1828 46.15 54.5028 46.15C53.9028 46.15 53.3928 46.0533 52.9728 45.86C52.5595 45.6667 52.1828 45.4 51.8428 45.06V49.39H49.6928V35.8H50.9928C51.2861 35.8 51.4728 35.9367 51.5528 36.21L51.7328 37.28ZM63.1719 31.2V46H61.0219V31.2H63.1719ZM72.5156 39.75C72.5156 39.39 72.4623 39.0567 72.3556 38.75C72.2556 38.4367 72.1056 38.1667 71.9056 37.94C71.7056 37.7067 71.4556 37.5267 71.1556 37.4C70.8623 37.2667 70.5223 37.2 70.1356 37.2C69.3556 37.2 68.7423 37.4233 68.2956 37.87C67.849 38.3167 67.5656 38.9433 67.4456 39.75H72.5156ZM67.3856 41.07C67.4123 41.65 67.5023 42.1533 67.6556 42.58C67.809 43 68.0123 43.35 68.2656 43.63C68.5256 43.91 68.8323 44.12 69.1856 44.26C69.5456 44.3933 69.9456 44.46 70.3856 44.46C70.8056 44.46 71.169 44.4133 71.4756 44.32C71.7823 44.22 72.049 44.1133 72.2756 44C72.5023 43.88 72.6956 43.7733 72.8556 43.68C73.0156 43.58 73.1623 43.53 73.2956 43.53C73.469 43.53 73.6023 43.5967 73.6956 43.73L74.3056 44.52C74.0523 44.82 73.7656 45.0733 73.4456 45.28C73.1256 45.4867 72.7856 45.6567 72.4256 45.79C72.0656 45.9167 71.6956 46.0067 71.3156 46.06C70.9356 46.12 70.5656 46.15 70.2056 46.15C69.499 46.15 68.8423 46.0333 68.2356 45.8C67.6356 45.56 67.1123 45.21 66.6656 44.75C66.2256 44.29 65.879 43.72 65.6256 43.04C65.379 42.36 65.2556 41.5767 65.2556 40.69C65.2556 39.9833 65.3656 39.3233 65.5856 38.71C65.8123 38.0967 66.1323 37.5633 66.5456 37.11C66.9656 36.6567 67.4723 36.3 68.0656 36.04C68.6656 35.7733 69.3423 35.64 70.0956 35.64C70.7223 35.64 71.3023 35.7433 71.8356 35.95C72.369 36.15 72.829 36.4467 73.2156 36.84C73.6023 37.2333 73.9023 37.7167 74.1156 38.29C74.3356 38.8567 74.4456 39.5033 74.4456 40.23C74.4456 40.5633 74.409 40.7867 74.3356 40.9C74.2623 41.0133 74.129 41.07 73.9356 41.07H67.3856ZM27.71 66.79C27.8367 66.79 27.9467 66.84 28.04 66.94L28.97 67.95C28.3833 68.6567 27.6633 69.2033 26.81 69.59C25.9567 69.97 24.9367 70.16 23.75 70.16C22.6967 70.16 21.7433 69.98 20.89 69.62C20.0433 69.2533 19.32 68.7467 18.72 68.1C18.12 67.4467 17.6567 66.67 17.33 65.77C17.01 64.87 16.85 63.88 16.85 62.8C16.85 61.72 17.02 60.73 17.36 59.83C17.7067 58.9233 18.19 58.1467 18.81 57.5C19.4367 56.8467 20.1833 56.34 21.05 55.98C21.9233 55.62 22.8833 55.44 23.93 55.44C24.97 55.44 25.8867 55.61 26.68 55.95C27.48 56.2833 28.1733 56.73 28.76 57.29L27.99 58.38C27.9367 58.4533 27.8733 58.5167 27.8 58.57C27.7267 58.6233 27.6267 58.65 27.5 58.65C27.3667 58.65 27.2133 58.59 27.04 58.47C26.8733 58.3433 26.6567 58.2067 26.39 58.06C26.13 57.9067 25.8 57.77 25.4 57.65C25.0067 57.5233 24.5133 57.46 23.92 57.46C23.2333 57.46 22.6033 57.58 22.03 57.82C21.4567 58.06 20.9633 58.41 20.55 58.87C20.1367 59.33 19.8133 59.89 19.58 60.55C19.3533 61.21 19.24 61.96 19.24 62.8C19.24 63.6467 19.36 64.4033 19.6 65.07C19.84 65.73 20.17 66.29 20.59 66.75C21.01 67.2033 21.5033 67.55 22.07 67.79C22.6367 68.03 23.2467 68.15 23.9 68.15C24.3 68.15 24.6567 68.13 24.97 68.09C25.29 68.0433 25.5833 67.9733 25.85 67.88C26.1167 67.78 26.3667 67.6567 26.6 67.51C26.84 67.3633 27.0767 67.1833 27.31 66.97C27.4433 66.85 27.5767 66.79 27.71 66.79ZM34.7864 59.64C35.5397 59.64 36.2197 59.7633 36.8264 60.01C37.4397 60.2567 37.9597 60.6067 38.3864 61.06C38.8197 61.5133 39.1531 62.0633 39.3864 62.71C39.6197 63.3567 39.7364 64.0833 39.7364 64.89C39.7364 65.6967 39.6197 66.4233 39.3864 67.07C39.1531 67.7167 38.8197 68.27 38.3864 68.73C37.9597 69.1833 37.4397 69.5333 36.8264 69.78C36.2197 70.0267 35.5397 70.15 34.7864 70.15C34.0264 70.15 33.3397 70.0267 32.7264 69.78C32.1197 69.5333 31.5997 69.1833 31.1664 68.73C30.7331 68.27 30.3997 67.7167 30.1664 67.07C29.9331 66.4233 29.8164 65.6967 29.8164 64.89C29.8164 64.0833 29.9331 63.3567 30.1664 62.71C30.3997 62.0633 30.7331 61.5133 31.1664 61.06C31.5997 60.6067 32.1197 60.2567 32.7264 60.01C33.3397 59.7633 34.0264 59.64 34.7864 59.64ZM34.7864 68.47C35.7064 68.47 36.3897 68.1633 36.8364 67.55C37.2897 66.93 37.5164 66.0467 37.5164 64.9C37.5164 63.7533 37.2897 62.87 36.8364 62.25C36.3897 61.6233 35.7064 61.31 34.7864 61.31C33.8531 61.31 33.1597 61.6233 32.7064 62.25C32.2531 62.87 32.0264 63.7533 32.0264 64.9C32.0264 66.0467 32.2531 66.93 32.7064 67.55C33.1597 68.1633 33.8531 68.47 34.7864 68.47ZM50.4022 59.8V70H49.1022C48.8155 70 48.6322 69.8633 48.5522 69.59L48.3922 68.64C48.1789 68.8667 47.9522 69.0733 47.7122 69.26C47.4789 69.4467 47.2289 69.6067 46.9622 69.74C46.6955 69.8733 46.4089 69.9767 46.1022 70.05C45.8022 70.1233 45.4789 70.16 45.1322 70.16C44.5722 70.16 44.0789 70.0667 43.6522 69.88C43.2255 69.6933 42.8655 69.43 42.5722 69.09C42.2855 68.75 42.0689 68.3433 41.9222 67.87C41.7755 67.39 41.7022 66.8633 41.7022 66.29V59.8H43.8522V66.29C43.8522 66.9767 44.0089 67.51 44.3222 67.89C44.6422 68.27 45.1255 68.46 45.7722 68.46C46.2455 68.46 46.6855 68.3533 47.0922 68.14C47.5055 67.92 47.8922 67.62 48.2522 67.24V59.8H50.4022ZM55.0231 61.15C55.2431 60.9233 55.4698 60.72 55.7031 60.54C55.9431 60.3533 56.1965 60.1933 56.4631 60.06C56.7298 59.9267 57.0131 59.8233 57.3131 59.75C57.6131 59.6767 57.9398 59.64 58.2931 59.64C58.8531 59.64 59.3431 59.7333 59.7631 59.92C60.1898 60.1067 60.5465 60.37 60.8331 60.71C61.1265 61.05 61.3465 61.46 61.4931 61.94C61.6398 62.4133 61.7131 62.9367 61.7131 63.51V70H59.5731V63.51C59.5731 62.8233 59.4131 62.29 59.0931 61.91C58.7798 61.53 58.2998 61.34 57.6531 61.34C57.1731 61.34 56.7265 61.45 56.3131 61.67C55.9065 61.89 55.5231 62.19 55.1631 62.57V70H53.0131V59.8H54.3131C54.6065 59.8 54.7931 59.9367 54.8731 60.21L55.0231 61.15ZM67.3573 70.16C66.5107 70.16 65.8573 69.9233 65.3973 69.45C64.944 68.97 64.7173 68.2967 64.7173 67.43V61.49H63.5973C63.4773 61.49 63.374 61.4533 63.2873 61.38C63.2007 61.3 63.1573 61.1833 63.1573 61.03V60.16L64.8073 59.92L65.2773 56.97C65.3107 56.8567 65.3673 56.7667 65.4473 56.7C65.5273 56.6267 65.634 56.59 65.7673 56.59H66.8673V59.94H69.6973V61.49H66.8673V67.28C66.8673 67.6467 66.9573 67.9267 67.1373 68.12C67.3173 68.3133 67.5573 68.41 67.8573 68.41C68.024 68.41 68.1673 68.39 68.2873 68.35C68.4073 68.3033 68.5107 68.2567 68.5973 68.21C68.684 68.1567 68.7573 68.11 68.8173 68.07C68.884 68.0233 68.9473 68 69.0073 68C69.1273 68 69.224 68.0667 69.2973 68.2L69.9373 69.25C69.604 69.5433 69.2107 69.77 68.7573 69.93C68.304 70.0833 67.8373 70.16 67.3573 70.16ZM78.0039 63.75C78.0039 63.39 77.9506 63.0567 77.8439 62.75C77.7439 62.4367 77.5939 62.1667 77.3939 61.94C77.1939 61.7067 76.9439 61.5267 76.6439 61.4C76.3506 61.2667 76.0106 61.2 75.6239 61.2C74.8439 61.2 74.2306 61.4233 73.7839 61.87C73.3372 62.3167 73.0539 62.9433 72.9339 63.75H78.0039ZM72.8739 65.07C72.9006 65.65 72.9906 66.1533 73.1439 66.58C73.2972 67 73.5006 67.35 73.7539 67.63C74.0139 67.91 74.3206 68.12 74.6739 68.26C75.0339 68.3933 75.4339 68.46 75.8739 68.46C76.2939 68.46 76.6572 68.4133 76.9639 68.32C77.2706 68.22 77.5372 68.1133 77.7639 68C77.9906 67.88 78.1839 67.7733 78.3439 67.68C78.5039 67.58 78.6506 67.53 78.7839 67.53C78.9572 67.53 79.0906 67.5967 79.1839 67.73L79.7939 68.52C79.5406 68.82 79.2539 69.0733 78.9339 69.28C78.6139 69.4867 78.2739 69.6567 77.9139 69.79C77.5539 69.9167 77.1839 70.0067 76.8039 70.06C76.4239 70.12 76.0539 70.15 75.6939 70.15C74.9872 70.15 74.3306 70.0333 73.7239 69.8C73.1239 69.56 72.6006 69.21 72.1539 68.75C71.7139 68.29 71.3672 67.72 71.1139 67.04C70.8672 66.36 70.7439 65.5767 70.7439 64.69C70.7439 63.9833 70.8539 63.3233 71.0739 62.71C71.3006 62.0967 71.6206 61.5633 72.0339 61.11C72.4539 60.6567 72.9606 60.3 73.5539 60.04C74.1539 59.7733 74.8306 59.64 75.5839 59.64C76.2106 59.64 76.7906 59.7433 77.3239 59.95C77.8572 60.15 78.3172 60.4467 78.7039 60.84C79.0906 61.2333 79.3906 61.7167 79.6039 62.29C79.8239 62.8567 79.9339 63.5033 79.9339 64.23C79.9339 64.5633 79.8972 64.7867 79.8239 64.9C79.7506 65.0133 79.6172 65.07 79.4239 65.07H72.8739ZM83.9689 61.69C84.2889 61.0433 84.6756 60.5367 85.1289 60.17C85.5822 59.7967 86.1256 59.61 86.7589 59.61C86.9789 59.61 87.1856 59.6367 87.3789 59.69C87.5722 59.7367 87.7456 59.81 87.8989 59.91L87.7489 61.53C87.7222 61.6433 87.6789 61.7233 87.6189 61.77C87.5656 61.81 87.4922 61.83 87.3989 61.83C87.2989 61.83 87.1556 61.8133 86.9689 61.78C86.7822 61.74 86.5856 61.72 86.3789 61.72C86.0789 61.72 85.8122 61.7633 85.5789 61.85C85.3522 61.9367 85.1456 62.0633 84.9589 62.23C84.7789 62.3967 84.6189 62.6 84.4789 62.84C84.3389 63.08 84.2089 63.3533 84.0889 63.66V70H81.9389V59.8H83.1889C83.4156 59.8 83.5722 59.8433 83.6589 59.93C83.7456 60.01 83.8056 60.1533 83.8389 60.36L83.9689 61.69Z" fill="#333333"/>
<defs>
<linearGradient id="paint0_linear_0_1" x1="0" y1="50" x2="100" y2="50" gradientUnits="userSpaceOnUse">
<stop stop-color="#CAF4BE"/>
<stop offset="1" stop-color="#E5F4BE"/>
</linearGradient>
</defs>
</svg>
